<?xml version="1.0" standalone="no"?>
<!DOCTYPE svg PUBLIC "-//W3C//DTD SVG 20010904//EN"
 "http://www.w3.org/TR/2001/REC-SVG-20010904/DTD/svg10.dtd">
<svg version="1.0" xmlns="http://www.w3.org/2000/svg"
 width="1920.000000pt" height="1920.000000pt" viewBox="0 0 1920.000000 1920.000000"
 preserveAspectRatio="xMidYMid meet">

<g transform="translate(0.000000,1920.000000) scale(0.100000,-0.100000)"
fill="#000000" stroke="none">
<path d="M2555 15616 c-150 -47 -256 -149 -305 -290 -19 -58 -20 -81 -20 -918
l0 -858 7370 0 7370 0 0 858 c0 837 -1 860 -20 918 -43 123 -119 206 -246 266
l-69 33 -7020 2 c-5651 1 -7028 -1 -7060 -11z m1507 -697 c109 -36 169 -93
220 -204 17 -39 22 -68 22 -130 0 -70 -4 -87 -32 -143 -81 -157 -237 -230
-401 -188 -157 40 -271 198 -258 356 13 151 103 265 246 311 74 24 129 23 203
-2z m1433 -13 c73 -33 143 -100 174 -166 22 -47 26 -69 26 -155 0 -91 -3 -105
-30 -158 -39 -77 -110 -141 -180 -162 -101 -29 -133 -29 -253 -1 -68 16 -149
96 -194 193 -28 59 -30 71 -26 147 5 94 28 152 87 217 100 112 262 147 396 85z
m1358 15 c116 -40 202 -125 233 -230 23 -75 15 -191 -16 -255 -67 -139 -230
-218 -386 -186 -77 16 -120 39 -174 92 -126 126 -140 317 -33 453 96 122 244
171 376 126z"/>
<path d="M2230 8582 c0 -4645 0 -4649 20 -4708 50 -143 156 -243 309 -290 69
-21 14013 -21 14082 0 153 47 259 147 309 290 20 59 20 63 20 4708 l0 4648
-7370 0 -7370 0 0 -4648z m3051 2602 c39 -20 75 -59 97 -104 15 -30 17 -81 20
-377 l3 -343 454 0 454 0 4 338 c2 247 7 348 17 377 53 159 283 178 359 30
l26 -49 0 -916 0 -915 -28 -48 c-59 -99 -161 -132 -262 -82 -105 51 -115 100
-115 572 l0 353 -454 0 -455 0 -3 -387 c-3 -348 -5 -392 -21 -428 -63 -140
-226 -178 -328 -76 -72 72 -70 39 -67 1037 l3 890 25 49 c49 94 173 130 271
79z m4095 11 c64 -19 108 -64 128 -134 14 -48 16 -151 16 -832 l0 -778 463 -3
c455 -3 463 -3 504 -25 131 -70 131 -234 -1 -294 -38 -17 -78 -19 -616 -19
-375 0 -588 4 -613 11 -21 6 -56 26 -78 46 -72 65 -70 30 -67 1014 l3 874 26
50 c26 51 65 82 122 95 48 12 59 11 113 -5z m1793 -13 c40 -19 76 -67 91 -121
6 -23 10 -327 10 -823 l0 -787 463 -3 c460 -3 462 -3 509 -26 139 -69 123
-260 -26 -302 -29 -8 -211 -10 -621 -8 l-580 3 -48 24 c-34 16 -54 35 -70 65
l-22 41 -3 890 c-3 979 -4 961 58 1020 56 54 158 65 239 27z m2466 3 c277 -45
499 -198 634 -436 40 -71 105 -270 122 -374 8 -45 13 -151 13 -245 -1 -188
-26 -327 -84 -479 -159 -413 -605 -641 -1103 -566 -220 33 -400 119 -538 255
-133 133 -225 309 -270 520 -32 150 -33 432 -1 567 40 167 74 249 158 378 61
93 138 171 248 249 77 54 202 111 268 120 18 3 62 10 98 15 144 23 295 22 455
-4z m-4976 -30 c115 -67 110 -219 -9 -274 -30 -14 -104 -17 -545 -21 l-510 -5
-3 -257 -2 -258 468 0 c465 0 468 0 512 -22 24 -13 52 -35 63 -49 50 -69 19
-175 -63 -216 -44 -23 -47 -23 -512 -23 l-468 0 0 -300 0 -300 528 0 c492 0
530 -2 568 -19 118 -54 120 -220 4 -279 l-45 -22 -662 2 -661 3 -43 30 c-26
18 -53 50 -68 80 l-26 49 0 866 0 865 27 55 c30 61 71 94 133 109 23 5 298 9
660 8 600 -2 621 -3 654 -22z m-4198 -3447 c56 -31 93 -109 135 -285 59 -251
92 -396 99 -443 4 -25 36 -171 71 -325 36 -154 72 -313 81 -352 10 -40 20 -73
24 -73 4 0 15 35 24 78 15 72 61 244 141 527 48 172 92 338 98 366 11 60 67
260 84 307 29 77 68 138 105 166 107 81 262 72 347 -20 23 -25 48 -60 55 -78
19 -45 137 -463 175 -618 17 -70 50 -196 74 -280 24 -84 60 -214 81 -288 21
-74 41 -139 45 -143 3 -4 23 66 43 155 20 90 53 231 72 313 65 278 114 499
140 630 31 153 51 227 76 276 92 182 359 115 359 -91 0 -30 -34 -183 -84 -383
-46 -182 -87 -348 -90 -367 -3 -19 -40 -170 -82 -335 -42 -165 -99 -393 -128
-507 -33 -130 -61 -219 -75 -240 -88 -128 -291 -141 -398 -26 -26 27 -60 100
-68 145 -3 18 -27 110 -54 205 -98 345 -150 535 -180 654 -51 209 -136 512
-145 522 -2 2 -7 -5 -10 -15 -16 -54 -58 -219 -62 -241 -5 -27 -58 -222 -113
-412 -92 -325 -112 -395 -117 -424 -14 -84 -89 -327 -118 -385 -13 -25 -35
-56 -48 -68 -88 -82 -268 -77 -343 9 -18 22 -45 68 -58 102 -26 65 -156 559
-206 786 -17 74 -73 302 -126 505 -129 499 -132 538 -48 617 62 59 156 75 224
36z m3724 11 c413 -51 695 -286 811 -676 19 -66 18 -56 34 -227 12 -115 9
-275 -5 -371 -3 -16 -7 -51 -10 -77 -18 -163 -144 -400 -279 -525 -115 -107
-288 -203 -391 -217 -288 -39 -287 -39 -415 -27 -198 19 -247 30 -344 75 -220
101 -343 223 -459 451 -72 141 -114 383 -104 595 14 293 80 495 217 661 102
124 163 174 285 234 203 100 417 134 660 104z m3603 -15 c39 -19 59 -38 80
-72 l27 -47 3 -800 c1 -440 4 -806 7 -812 3 -10 102 -13 448 -13 493 0 523 -3
571 -60 69 -83 46 -203 -48 -253 -41 -22 -46 -22 -610 -25 -634 -3 -648 -2
-712 62 -65 65 -64 46 -64 997 0 929 -2 901 55 975 31 40 99 74 151 74 23 0
62 -11 92 -26z m-1127 -36 c164 -44 294 -145 366 -285 48 -93 63 -155 63 -266
0 -187 -77 -340 -217 -433 -64 -43 -174 -91 -224 -99 -19 -3 -48 -9 -64 -13
l-29 -8 57 -38 c162 -107 360 -376 477 -646 59 -134 48 -198 -43 -254 -41 -25
-59 -30 -116 -30 -96 -1 -147 32 -223 144 -31 47 -57 88 -58 92 0 12 -242 411
-280 463 -52 70 -156 164 -210 189 -37 17 -69 21 -192 24 l-147 4 -3 -384 -3
-383 -26 -50 c-34 -67 -90 -99 -174 -99 -90 1 -139 30 -173 102 l-27 57 0 890
0 890 24 48 c25 51 48 71 109 93 56 21 1033 14 1113 -8z m3699 -1 c220 -54
369 -155 483 -331 128 -195 178 -389 176 -689 -1 -251 -36 -412 -126 -580 -86
-163 -206 -281 -357 -356 -162 -80 -276 -94 -757 -89 -335 3 -356 4 -399 24
-60 28 -96 72 -109 134 -7 35 -11 322 -11 889 0 918 -1 908 59 965 56 54 76
56 546 52 350 -3 442 -6 495 -19z"/>
<path d="M13261 10874 c-129 -28 -243 -106 -331 -228 -154 -215 -169 -684 -31
-951 98 -189 280 -296 505 -295 76 1 143 12 191 34 17 8 53 24 80 36 64 29
157 125 212 217 81 137 109 283 100 517 -5 125 -10 166 -32 236 -79 251 -224
392 -449 435 -94 18 -160 18 -245 -1z"/>
<path d="M7880 7385 c-115 -28 -227 -96 -286 -174 -115 -150 -175 -402 -154
-646 14 -165 47 -274 120 -396 85 -143 245 -240 422 -255 214 -18 430 94 531
276 67 121 92 209 106 366 31 352 -88 661 -298 773 -123 65 -307 89 -441 56z"/>
<path d="M9820 7095 l0 -285 243 0 c324 0 448 20 528 82 55 42 73 88 76 192 2
104 -10 143 -65 199 -83 87 -136 97 -497 97 l-285 0 0 -285z"/>
<path d="M13670 6661 l0 -712 268 3 c248 3 271 5 322 26 164 65 251 177 312
400 18 66 21 106 22 287 1 185 -2 220 -21 295 -31 123 -64 189 -127 258 -103
110 -212 140 -553 149 l-223 6 0 -712z"/>
</g>
</svg>
