<?xml version="1.0" standalone="no"?>
<!DOCTYPE svg PUBLIC "-//W3C//DTD SVG 20010904//EN"
 "http://www.w3.org/TR/2001/REC-SVG-20010904/DTD/svg10.dtd">
<svg version="1.0" xmlns="http://www.w3.org/2000/svg"
 width="512.000000pt" height="512.000000pt" viewBox="0 0 512.000000 512.000000"
 preserveAspectRatio="xMidYMid meet">

<g transform="translate(0.000000,512.000000) scale(0.100000,-0.100000)"
fill="#f3f3f3" stroke="none">
<path d="M1725 5114 c-16 -2 -70 -9 -120 -15 -386 -47 -771 -238 -1058 -526
-287 -286 -469 -650 -528 -1058 -17 -116 -17 -394 0 -510 59 -405 240 -770
522 -1054 270 -271 578 -434 976 -517 113 -24 151 -27 328 -28 248 0 364 16
580 85 107 33 194 68 289 116 l69 35 771 -770 c516 -516 788 -780 821 -800
294 -170 662 -10 731 320 26 120 5 243 -58 353 -20 33 -284 305 -800 821
l-770 771 35 69 c48 95 83 182 116 289 69 216 85 332 85 580 -1 177 -4 215
-28 328 -83 398 -246 706 -517 976 -278 276 -634 456 -1024 517 -90 14 -364
26 -420 18z m282 -529 c159 -13 372 -82 518 -167 386 -226 629 -612 664 -1051
51 -657 -377 -1249 -1012 -1402 -649 -157 -1310 183 -1556 800 -270 677 58
1453 731 1729 158 65 401 110 538 100 25 -2 78 -6 117 -9z"/>
</g>
</svg>
