<?xml version="1.0" standalone="no"?>
<!DOCTYPE svg PUBLIC "-//W3C//DTD SVG 20010904//EN"
 "http://www.w3.org/TR/2001/REC-SVG-20010904/DTD/svg10.dtd">
<svg version="1.0" xmlns="http://www.w3.org/2000/svg"
 width="1024.000000pt" height="1024.000000pt" viewBox="0 0 1024.000000 1024.000000"
 preserveAspectRatio="xMidYMid meet">

<g transform="translate(0.000000,1024.000000) scale(0.100000,-0.100000)"
fill="#1d1d1d" stroke="none">
<path d="M1010 8383 c-48 -8 -126 -36 -190 -69 -162 -82 -288 -240 -334 -420
-20 -79 -21 -239 -1 -323 26 -109 88 -216 179 -306 87 -86 156 -128 271 -167
l70 -23 4115 0 4115 0 70 23 c115 39 184 81 271 167 135 134 194 275 194 469
0 293 -162 516 -460 630 l-55 21 -4110 1 c-2261 1 -4121 -1 -4135 -3z"/>
<path d="M1005 5615 c-250 -45 -458 -243 -521 -495 -24 -97 -15 -282 18 -372
37 -99 85 -173 159 -247 73 -74 146 -121 247 -160 l67 -26 4145 0 4145 0 67
26 c101 39 174 86 247 160 74 74 122 148 159 247 33 90 42 275 18 372 -65 260
-282 459 -543 499 -112 17 -8114 14 -8208 -4z"/>
<path d="M975 2845 c-232 -63 -400 -216 -476 -435 -30 -88 -38 -266 -15 -364
42 -178 181 -352 346 -433 163 -80 -237 -73 4290 -73 4527 0 4127 -7 4290 73
165 81 304 255 346 433 23 98 15 276 -15 364 -67 193 -209 338 -404 413 l-82
32 -4115 2 c-3432 1 -4123 0 -4165 -12z"/>
</g>
</svg>
