<?xml version="1.0" standalone="no"?>
<!DOCTYPE svg PUBLIC "-//W3C//DTD SVG 20010904//EN"
 "http://www.w3.org/TR/2001/REC-SVG-20010904/DTD/svg10.dtd">
<svg version="1.0" xmlns="http://www.w3.org/2000/svg"
 width="1024.000000pt" height="1024.000000pt" viewBox="0 0 1024.000000 1024.000000"
 preserveAspectRatio="xMidYMid meet">

<g transform="translate(0.000000,1024.000000) scale(0.100000,-0.100000)"
fill="#dddcdc" stroke="none">
<path d="M4208 9378 c-60 -16 -125 -81 -142 -141 -8 -29 -50 -300 -92 -604
l-78 -552 -192 -95 c-163 -81 -369 -206 -500 -305 l-31 -23 -539 218 c-344
138 -556 219 -586 222 -71 7 -149 -34 -193 -102 -18 -28 -223 -381 -456 -785
-366 -636 -423 -740 -427 -782 -6 -67 18 -128 71 -176 23 -21 237 -191 475
-378 l434 -340 -6 -35 c-28 -182 -31 -511 -6 -710 l11 -85 -32 -25 c-266 -206
-853 -670 -881 -698 -50 -48 -73 -107 -65 -173 5 -43 66 -154 428 -782 232
-403 437 -755 455 -783 43 -68 120 -109 192 -102 30 3 243 85 586 223 365 149
542 216 551 209 137 -101 381 -251 530 -325 l181 -90 78 -552 c43 -304 83
-572 89 -597 15 -62 86 -132 149 -148 67 -17 1749 -17 1816 0 63 16 134 86
149 148 6 25 46 294 89 598 l78 553 145 70 c171 82 344 184 477 280 52 38 99
69 103 69 4 0 248 -98 542 -217 490 -200 539 -218 594 -218 48 0 70 6 107 28
56 33 17 -30 547 889 344 597 403 704 408 747 8 66 -15 125 -65 173 -28 28
-615 492 -881 698 l-32 25 11 85 c25 200 22 528 -6 710 l-6 35 470 368 c401
314 474 374 491 410 26 54 27 128 2 182 -10 22 -210 373 -445 780 -286 495
-438 750 -461 771 -38 33 -93 54 -146 54 -19 0 -99 -27 -179 -59 -80 -32 -326
-131 -548 -221 l-403 -163 -37 28 c-175 128 -429 279 -595 351 -61 27 -89 45
-92 59 -3 11 -39 263 -80 560 -42 297 -81 558 -86 580 -15 56 -91 128 -152
143 -59 15 -1763 15 -1819 0z m1167 -2788 c621 -106 1109 -595 1216 -1218 112
-656 -229 -1315 -828 -1598 -201 -95 -360 -133 -588 -141 -244 -8 -425 24
-637 113 -553 234 -908 771 -908 1374 0 508 245 964 670 1247 178 119 421 209
635 236 99 13 331 6 440 -13z"/>
</g>
</svg>
