<?xml version="1.0" standalone="no"?>
<!DOCTYPE svg PUBLIC "-//W3C//DTD SVG 20010904//EN"
 "http://www.w3.org/TR/2001/REC-SVG-20010904/DTD/svg10.dtd">
<svg version="1.0" xmlns="http://www.w3.org/2000/svg"
 width="1200.000000pt" height="1200.000000pt" viewBox="0 0 1200.000000 1200.000000"
 preserveAspectRatio="xMidYMid meet">

<g transform="translate(0.000000,1200.000000) scale(0.100000,-0.100000)"
fill="#dddcdc" stroke="none">
<path d="M5735 11389 c-1170 -102 -2188 -897 -2570 -2010 -536 -1559 283
-3258 1834 -3806 1092 -386 2301 -112 3121 707 1057 1057 1175 2728 276 3924
-571 759 -1469 1203 -2416 1195 -80 -1 -190 -6 -245 -10z"/>
<path d="M5555 4490 c-1164 -65 -2203 -354 -3071 -853 -982 -564 -1683 -1382
-1855 -2162 -20 -91 -22 -134 -26 -488 l-5 -387 5402 0 5402 0 -5 388 c-4 353
-6 396 -26 487 -167 755 -824 1541 -1763 2108 -844 509 -1842 807 -3008 897
-185 15 -849 20 -1045 10z"/>
</g>
</svg>
